<?xml version="1.0" encoding="UTF-8" standalone="no"?>
<!DOCTYPE svg PUBLIC "-//W3C//DTD SVG 1.1//EN" "http://www.w3.org/Graphics/SVG/1.1/DTD/svg11.dtd">
<svg height="100%" stroke-miterlimit="10" style="fill-rule:nonzero;clip-rule:evenodd;stroke-linecap:round;stroke-linejoin:round;" version="1.1" viewBox="0 0 357 712" width="100%" xml:space="preserve" xmlns="http://www.w3.org/2000/svg" xmlns:vectornator="http://vectornator.io" xmlns:xlink="http://www.w3.org/1999/xlink">
<defs/>
    <g stroke-linecap="round">
        <path id="face-svg" 
            fill="none" 
            stroke-width="4" 
            stroke-opacity="1.00" 
            stroke-linejoin="round"
            pathLength="1" 
            d="M15.6467 622.482C15.6467 622.482 17.1951 683.046 16.2532 689.869C15.3113 696.692 14.399 693.694 14.399 693.694C14.399 693.694 3.77915 641.805 16.4779 619.89C19.797 614.162 31.5367 621.36 35.1267 641.933C37.7333 656.871 36.0434 678.86 23.7145 708.072C20.2695 716.235 14.3005 704.976 16.352 693.617C17.7319 685.976 28.2732 674.182 34.4142 685.715C38.4835 693.358 43.7965 691.407 43.7965 691.407C43.7965 691.407 55.8795 686.102 57.0326 665.635C57.5752 656.003 48.7575 658.852 44.4164 668.348C42.8112 671.86 31.2577 719.355 62.7302 694.937C73.9836 686.206 80.0996 644.349 80.1984 642.488C81.0439 626.566 74.5419 636.391 72.0905 645.422C66.9355 664.414 58.2535 704.026 73.4471 704.84C88.2841 705.635 91.8965 682.592 89.319 679.472C80.3133 668.571 82.3236 688.288 87.6911 685.848C90.6755 684.491 102.651 659.26 116.179 672.788C117.4 674.009 104.106 663.021 98.408 676.993C92.7104 690.966 93.4273 693.081 93.7957 698.698C94.3383 706.974 122.135 715.932 120.927 679.706C120.384 663.428 102.342 694.9 126.625 676.044C126.625 676.044 135.714 666.548 132.322 685.675C128.931 704.803 127.574 707.923 127.574 707.923C127.574 707.923 127.981 677.4 139.241 674.416C150.5 671.431 144.26 690.152 151.857 688.389C159.454 686.625 162.981 678.214 163.117 676.451C163.252 674.687 155.791 667.09 151.586 674.687C147.38 682.284 139.919 707.516 149.279 703.446C158.64 699.377 163.93 688.66 164.88 682.284C165.83 675.908 162.031 669.939 158.097 679.299C154.163 688.66 158.233 705.346 167.322 698.291C176.411 691.237 181.973 670.617 184.143 661.935C186.314 653.253 187.263 626.122 183.058 631.277C178.853 636.432 175.868 689.745 176.818 692.594C177.767 695.443 186.679 647.804 199.608 656.102C208.697 661.935 182.101 702.286 197.294 695.808C229.834 681.932 233.137 619.823 261.603 593.484C286.16 570.762 368.007 548.337 351.886 540.786C335.765 533.234 325.453 528.085 297.901 516.744C270.349 505.402 265.845 487.753 263.37 471.412C260.896 455.071 271.078 408.5 277.488 396.414C283.899 384.328 304.899 319.66 305.939 306.807C306.98 293.954 312.15 242.653 313.848 228.645C315.547 214.637 314.549 192.991 311.15 188.469C307.752 183.947 302.828 190.171 300.855 193.636C298.881 197.101 303.295 197.211 305.849 196.449C308.404 195.687 308.096 193.853 306.985 189.096C305.874 184.338 306.489 186.558 303.161 185.04C299.832 183.523 298.847 186.862 295.3 185.443C291.752 184.025 293.184 183.113 293.354 180.011C293.524 176.909 296.218 175.295 297.492 171.43C298.766 167.566 297.782 166.564 294.424 164.402C291.066 162.24 284.799 166.441 287.128 166.332C289.457 166.222 287.913 165.043 288.517 161.756C289.121 158.468 286.097 159.337 282.283 157.654C278.468 155.97 276.156 158.931 276.061 161.234C275.965 163.538 275.477 164.317 277.521 163.727C279.565 163.136 279.119 161.731 280.635 157.993C282.152 154.255 280.094 154.555 278.143 151.562C276.193 148.569 272.515 149.789 274.279 148.222C276.044 146.655 274.719 145.786 274.56 141.807C274.402 137.827 271.252 137.859 267.669 136.775C264.087 135.692 263.388 136.947 261.676 138.395C259.964 139.843 261.078 141.188 263.283 141.521C265.487 141.854 264.988 140.568 265.359 136.68C265.73 132.792 261.439 130.898 258.704 126.137C255.97 121.377 257.045 118.794 255.2 119.9C253.355 121.005 250.743 121.913 248.986 119.929C247.229 117.946 250.392 109.532 248.365 108.638C246.339 107.743 251.72 104.29 241.262 111.474C230.804 118.658 230.11 110.041 230.11 110.041C228.212 106.647 233.239 96.5748 230.991 93.0938C228.743 89.6128 215.158 92.0388 212.255 90.8078C209.352 89.5767 208.299 87.4595 207.038 85.2441C205.777 83.0288 203.434 83.0966 202.088 84.2006C200.742 85.3047 197.056 89.0753 194.998 89.4921C192.94 89.909 189.765 89.5845 187.749 89.0841C185.734 88.5838 182.765 86.5011 180.707 86.918C178.649 87.3349 176.126 87.768 172.559 88.1373C168.991 88.5066 165.52 88.7536 163.061 89.1018C160.602 89.4499 150.838 90.5016 150.838 90.5016C150.838 90.5016 152.059 92.3511 153.05 91.3465C154.041 90.3419 154.624 90.1062 154.605 86.2297C154.585 82.3531 149.892 82.1361 147.39 81.6582C144.888 81.1803 138.289 92.4389 135.961 93.8797C133.633 95.3205 132.973 93.5152 130.656 91.7962C128.338 90.0772 125.635 88.8475 118.619 87.7987C111.604 86.75 94.9924 102.61 92.8634 103.608C90.7345 104.607 90.2364 103.664 87.6602 103.302C85.084 102.94 85.3481 101.326 81.8089 100.627C78.2698 99.9284 78.4933 99.2088 75.9428 102.837C73.3924 106.466 73.0446 109.749 70.921 113.785C68.7973 117.822 68.3702 114.614 64.4958 114.994C60.6214 115.375 60.7204 114.42 58.467 115.182C56.2135 115.945 56.4906 117.726 56.2622 121.007C56.0338 124.289 54.929 128.482 55.5033 130.197C56.0777 131.912 52.8112 141.765 51.8333 144.758C50.8554 147.752 49.7853 147.093 47.5243 148.247C45.2632 149.4 44.5777 149.462 44.5015 151.885C44.4253 154.308 49.2356 163.414 48.4786 166.082C47.7215 168.751 45.1156 174.389 43.9278 174.51C42.74 174.631 41.6414 174.659 40.1512 173.691C38.6611 172.724 38.6904 170.257 39.8551 169.222C41.0199 168.188 43.3988 168.996 45.139 171.705C46.8793 174.414 46.4137 182.425 44.8878 186.394C43.3618 190.362 41.2091 187.296 36.482 191.618C31.7548 195.94 33.5644 203.277 34.1474 207.869C34.7303 212.461 38.1002 229.083 38.5638 233.812C39.0275 238.541 37.9064 240.937 36.2974 245.554C34.6883 250.172 29.7512 253.35 25.707 252.734C21.6628 252.118 22.672 251.789 19.2896 249.582C15.9072 247.375 16.2323 239.203 16.2647 235C16.2972 230.796 14.8765 231.243 12.9868 230.079C11.0972 228.916 8.19968 226.592 6.20728 223.584C4.21488 220.577 4.33821 214.507 5.53468 209.298C6.73115 204.089 10.0018 203.54 10.9114 201.097C11.8211 198.654 9.80085 198.091 7.01066 195.854C4.22048 193.616 2.61761 189.687 2.32582 186.104C2.03403 182.521 3.95384 180.36 6.95366 176.421C9.95348 172.482 12.9907 170.689 13.6205 168.374C14.2502 166.059 14.8101 165.803 12.3674 162.258C9.92477 158.712 6.9108 159.82 5.9564 154.648C5.002 149.477 11.9444 143.851 15.2516 137.617C18.5587 131.383 19.4706 133.556 23.1239 134.26C26.7772 134.963 33.8045 133.987 33.8045 133.987C33.8045 133.987 33.9622 129.774 31.2794 129.953C28.5965 130.132 27.9521 135.287 27.4872 139.196C27.0223 143.104 30.8807 140.622 34.7391 138.14C38.5975 135.658 38.1416 132.29 37.2905 128.5C36.4395 124.709 33.1211 125.82 29.2449 124.131C25.3686 122.443 22.0627 120.856 21.766 115.286C21.4692 109.715 25.0379 110.821 27.9881 106.182C30.9382 101.542 29.5507 103.701 31.2278 97.9548C32.905 92.2081 33.7542 93.7094 35.0219 87.9485C36.2896 82.1877 38.571 82.5942 40.089 79.0496C41.607 75.505 43.4503 76.7139 45.5136 78.6663C47.5768 80.6187 50.8506 78.4434 50.307 75.2358C49.7635 72.0282 47.1728 68.7492 49.3756 62.0397C51.5784 55.3303 47.8684 60.5973 56.2127 54.1018C64.5571 47.6064 70.8345 53.3031 70.8345 53.3031C70.8345 53.3031 69.0233 55.8564 65.1774 55.6406C61.3316 55.4249 62.399 55.3803 63.1553 50.1739C63.9116 44.9675 65.0541 47.4602 70.2713 43.6357C75.4886 39.8112 75.7692 43.5002 82.7279 41.4534C89.6865 39.4065 86.1214 42.8798 88.3689 37.2348C90.6163 31.5898 87.5893 31.4026 95.5117 27.5906C103.434 23.7785 100.117 27.1787 110.033 29.65C112.547 30.2765 110.675 27.7101 114.984 21.7281C119.293 15.7462 120.057 19.6973 127.75 22.4183C135.443 25.1392 137.242 25.2836 142.681 24.492C148.12 23.7004 149.289 23.087 154.682 18.9416C160.074 14.7961 156.051 12.6119 158.327 6.15028C160.603-0.311321 166.484 2.67347 171.295 3.41345C176.107 4.15343 177.161 6.80655 179.851 4.93798C182.54 3.0694 183.198 3.01057 189.193 2.72889C195.187 2.44721 199.495 13.8516 196.657 15.0571C194.318 16.0505 198.358 12.7329 203.146 9.29403C207.934 5.85518 207.604 9.8056 213.256 10.8957C218.908 11.9858 226.325 18.216 230.3 20.7973C234.276 23.3787 233.532 23.1058 238.021 21.242C242.509 19.3782 238.331 16.5822 241.268 16.2551C244.204 15.9281 246.191 21.9922 248.204 27.2233C250.217 32.4545 251.326 31.738 253.46 31.6782C255.594 31.6184 255.43 30.1542 258.926 27.9266C262.423 25.6989 262.092 29.6493 264.105 34.8805C266.118 40.1116 280.867 54.0747 282.064 53.5974C283.26 53.1201 283.254 51.7553 286.557 52.6485C289.861 53.5417 287.996 58.6401 288.738 62.4288C289.479 66.2176 288.855 68.9646 288.963 71.7233C289.071 74.4819 290.784 78.8788 292.792 77.8078C294.799 76.7369 294.735 75.5641 292.062 73.2887C289.919 71.4646 294.219 74.1499 297.414 75.7444C300.609 77.3389 301.064 84.7363 301.166 89.2599C301.267 93.7834 300.22 90.6724 297.777 92.6676C295.334 94.6629 295.208 92.2544 295.933 91.0166C296.659 89.7787 297.024 89.4057 299.555 90.7046C302.085 92.0035 303.523 96.9544 304.599 100.483C305.675 104.012 305.31 104.385 304.123 106.292C302.937 108.199 301.277 107.505 301.483 106.101C301.689 104.697 301.312 104.087 303.793 103.247C306.273 102.407 307.787 109.668 309.951 113.381C312.114 117.094 310.698 126.849 310.642 130.587C310.586 134.326 309.795 136.277 312.843 135.455C315.892 134.634 312.707 133.462 314.645 131.772C316.583 130.081 318.496 133.612 320.896 138.415C323.296 143.218 322.558 147.309 323.011 151.284C323.464 155.258 325.965 155.743 328.031 159.338C330.096 162.933 331.091 163.068 330.761 168.912C330.431 174.756 329.517 174.755 328.759 179.58C328 184.405 329.157 183.441 330.068 186.177C330.979 188.913 331.967 194.061 331.292 196.286C330.617 198.51 330.079 199.287 328.894 200.814C327.709 202.34 326.01 206.816 326.01 206.816C326.01 206.816 325.342 203.115 325.719 202.981C326.095 202.848 329.456 202.664 330.095 208.295C330.733 213.926 331.214 216.554 330.539 218.323C329.865 220.091 327.122 220.544 325.215 219.04C323.308 217.536 326.565 214.591 328.581 214.755C330.597 214.918 329.001 223.066 328.351 227.006C327.701 230.947 324.634 232.686 321.325 234.934C318.015 237.182 320.175 229.517 317.648 230.023C315.12 230.529 311.225 227.843 313.802 231.225C316.378 234.606 317.248 226.618 317.709 223.428C318.17 220.238 318.352 203.643 316.095 202.621C313.838 201.6 309.856 199.162 308.25 202.303C306.643 205.444 307.747 207.113 306.9 210.218C306.053 213.323 304.332 216.221 303.771 220.421C303.21 224.622 311.588 215.452 308.415 215.332C305.242 215.211 306.672 222.578 306.03 229.398C305.389 236.218 309.365 236.722 306.994 240.239C304.622 243.756 299.015 242.652 299.137 235.787C299.259 228.922 293.111 209.783 287.45 204.658C281.788 199.534 270.715 191.801 265.54 188.841C260.365 185.882 259.819 184.098 255.472 178.319C251.125 172.539 255.291 176.693 252.755 168.205C250.22 159.716 254.748 150.866 254.385 141.294C254.023 131.721 252.936 124.317 250.039 115.647C247.141 106.978 248.409 112.035 245.511 110.951C242.613 109.868 240.259 112.216 236.456 114.925C232.652 117.634 229.235 109.597 230.175 104.677C231.115 99.7577 230.997 101.398 231.349 96.3608C231.702 91.324 230.41 92.6125 228.178 91.4412C225.946 90.2698 221.835 90.8555 217.607 91.324C213.378 91.7926 212.321 90.9726 209.502 90.1527C206.683 89.3327 206.448 82.3047 204.451 82.5389C202.455 82.7732 201.632 85.3502 198.109 87.6929C194.585 90.0356 193.998 89.4499 190.944 89.6841C187.89 89.9184 187.42 89.0985 184.836 87.1072C182.252 85.1159 182.487 83.2417 182.604 80.0791C182.722 76.9165 184.249 79.2592 187.068 81.4847C189.887 83.7103 186.598 83.476 184.484 85.3502C182.369 87.2243 181.547 87.3415 176.261 89.0985C170.976 90.8555 173.09 89.8013 169.801 88.7471C166.512 87.6929 165.22 84.8816 164.985 82.6561C164.75 80.4305 167.804 81.0162 169.566 82.8903C171.328 84.7645 170.506 85.9358 169.449 87.81C168.392 89.6841 164.398 90.387 161.462 91.324C158.525 92.2611 153.827 91.324 155.824 90.1527C157.82 88.9813 150.695 93.9723 155.173 86.1406C158.175 80.8903 150.08 83.5323 144.364 87.5206C138.649 91.5089 139.003 93.4057 129.128 96.2044C119.254 99.0032 121.465 92.5557 110.078 94.4136C98.6901 96.2715 100.533 99.3731 90.9181 110.715C81.3038 122.057 89.1668 123.595 84.7251 142.345C80.2834 161.094 83.6982 161.682 80.7335 170.454C77.7687 179.227 71.5084 180.502 65.453 185.257C59.3977 190.012 40.0497 219.606 42.5503 212.92C45.0509 206.233 52.5293 209.663 78.5783 202.999C104.627 196.335 141.305 224.311 146.429 226.567C151.553 228.823 159.217 230.533 163.345 229.116C167.473 227.699 170.34 227.694 170.34 227.694C173.522 229.798 181.551 242.426 172.271 239.726C162.991 237.025 160.087 243.611 160.087 243.611L151.24 241.233C151.24 241.233 149.552 236.276 151.279 234.87C153.006 233.464 153.515 231.656 155.73 230.949C157.945 230.243 156.112 232.243 163.164 230.257C170.215 228.272 174.088 230.985 177.067 232.865C180.046 234.745 178.39 243.27 180.402 247.794C182.414 252.319 188.892 253.287 193.47 248.721C198.049 244.155 196.761 243.441 202.484 237.877C208.207 232.312 209.781 233.311 214.789 229.173C219.797 225.035 229.097 225.606 233.246 225.891C237.395 226.177 237.681 227.604 239.971 231.456C242.26 235.308 242.975 234.167 242.403 239.018C241.831 243.869 240.686 243.584 239.112 247.151C237.538 250.718 237.968 248.578 234.248 249.862C230.528 251.146 230.814 250.005 226.092 249.719C221.371 249.434 221.657 248.721 218.08 244.868C214.503 241.016 215.791 240.445 215.504 237.306C215.218 234.167 214.789 232.312 217.507 229.744C220.226 227.176 225.229 226.956 225.229 226.956C225.229 226.956 236.715 225.89 241.79 225.89C246.865 225.89 256.214 230.152 262.891 233.349C269.569 236.545 278.918 234.947 270.37 236.545C261.823 238.143 259.419 239.475 251.139 242.405C242.858 245.335 240.989 249.065 233.51 249.864C226.031 250.663 224.428 250.396 204.662 247.999C184.896 245.602 189.17 251.995 189.17 251.995C189.17 251.995 187.567 252.527 193.177 244.536C198.786 236.545 197.45 228.021 199.587 223.493C201.724 218.965 210.539 212.572 225.497 210.441C240.454 208.31 248.201 215.502 261.823 223.759C275.445 232.017 299.218 244.004 298.951 240.008C298.684 236.012 296.28 215.236 286.397 205.913C276.514 196.59 269.836 192.328 238.852 191.795C207.868 191.262 185.698 215.502 182.492 226.956C179.287 238.41 188.636 265.313 193.444 273.837C198.252 282.361 205.464 288.487 215.347 293.548C225.229 298.609 238.318 298.609 254.344 295.413C270.37 292.217 278.298 280.989 282.659 277.481C287.02 273.974 294.616 260.226 296.304 254.193C297.992 248.161 298.836 247.6 297.852 224.873C296.867 202.146 248.711 177.481 248.711 177.481C243.979 175.387 236.53 172.587 236.53 172.587C236.53 172.587 232.053 175.394 226.467 178.086C220.881 180.779 185.61 185.303 185.61 185.303L185.055 190.053C184.65 194.777 187.006 203.665 187.614 211.466C188.222 219.267 180.9 239.323 183.187 251.324C185.474 263.325 185.305 276.381 182.515 281.681C179.725 286.981 176.862 290.122 172.081 290.347C167.301 290.571 163.396 287.849 155.058 299.556C146.719 311.264 162.388 319.816 165.982 321.662C169.575 323.508 172.527 321.746 175.56 320.435C178.592 319.124 184.459 311.885 185.751 307.78C187.044 303.675 185.082 301.386 182.783 298.07C180.483 294.755 178.3 292.97 176.251 291.936C174.201 290.902 172.033 289.749 167.997 289.42C163.96 289.091 162.181 290.376 158.997 292.473C155.812 294.57 153.794 298.499 153.618 302.377C153.442 306.255 153.856 310.748 157.055 316.236C160.254 321.723 171.177 321.781 179.915 316.917C188.653 312.052 194.495 318.079 194.495 318.079C194.495 318.079 198.497 322.729 194.962 325.735C193.13 327.293 182.912 326.071 182.912 326.071C182.912 326.071 183.067 324.509 184.974 322.866C186.882 321.222 187.966 321.306 190.694 320.764C193.422 320.222 195.058 321.311 196.456 322.214C197.855 323.118 196.012 324.582 193.899 325.95C191.787 327.319 188.694 326.619 185.665 327.154C182.635 327.69 178.3 332.711 176.148 334.47C173.997 336.228 165.032 336.363 161.727 335.689C158.422 335.014 151.034 327.931 148.82 327.04C146.607 326.149 140.953 325.242 137.488 325.016C134.022 324.79 134.568 324.681 134.274 322.959C133.98 321.238 136.104 320.682 139.07 320.326C142.035 319.969 143.389 321.06 143.389 321.06L146.847 325.966C146.847 325.966 141.279 329.183 138.209 329.724C135.138 330.264 121.881 326.666 120.54 322.432C118.249 315.201 120.243 318.523 126.302 316.959C132.063 315.471 130.772 315.699 134.746 313.178C138.719 310.656 140.706 311.557 145.041 313.178C149.375 314.799 154.433 318.041 159.49 321.283C164.547 324.525 168.34 322.364 171.049 321.103C173.758 319.842 180.08 317.14 184.053 315.879C188.027 314.619 190.194 315.879 190.194 315.879C190.194 315.879 196.516 318.941 199.406 320.743C202.295 322.544 208.921 321.449 215.965 318.928C219.03 317.83 213.674 323.084 211.687 325.065C209.701 327.047 205.366 331.009 201.934 330.649C200.651 330.514 199.873 330.178 199.025 329.716C197.603 328.942 195.982 327.814 191.459 326.686C184.234 324.885 180.494 330.15 180.494 330.15C180.494 330.15 177.009 333.891 173.758 335.152C170.507 336.413 171.41 336.593 167.437 336.052C163.463 335.512 157.864 336.773 154.071 332.45C150.279 328.127 152.265 328.668 147.569 328.668C142.873 328.668 144.845 329.878 133.647 329.337C128.545 329.091 128.244 329.208 123.909 326.506C119.574 323.805 120.658 321.823 121.019 317.681C121.38 313.538 126.437 312.817 132.398 308.855C138.358 304.892 140.164 305.613 144.86 294.986C149.556 284.359 151.001 267.428 149.375 248.696C147.75 229.964 95.1912 213.213 90.4953 213.754C85.7993 214.294 77.8523 216.635 75.8655 218.437C73.8788 220.238 67.7379 223.66 62.1389 235.367C56.5398 247.075 53.2888 249.236 56.3592 248.696C59.4297 248.156 61.4164 249.597 65.5705 249.056C69.7247 248.516 72.9757 249.417 77.4911 250.857C82.0064 252.298 94.777 255.142 98.0281 254.241C101.279 253.34 104.975 251.954 107.599 248.032C110.222 244.11 109.496 242.727 108.523 238.552C107.55 234.377 103.706 231.333 103.706 231.333L98.9353 229.286C98.9353 229.286 93.5486 227.247 89.737 229.495C85.9254 231.742 82.8303 232.711 82.1078 236.854C81.3854 240.997 81.6627 242.229 84.1606 247.667C85.9516 251.566 86.8354 253.521 89.9059 253.881C92.9763 254.241 102.777 254.64 110.724 250.857C118.671 247.075 139.984 247.075 139.984 247.075C121.38 244.734 125.146 229.888 98.7939 228.966C54.976 227.433 33.7617 267.103 33.7617 267.103C33.7617 267.103 32.8188 257.315 31.7705 250.279C30.7221 243.243 31.2781 215.232 63.4902 204.524C95.7023 193.817 124.746 212.95 135.659 217.163C146.573 221.376 150.621 230.855 150.621 230.855C162.415 269.473 141.468 287.729 135.835 293.522C130.203 299.315 121.93 309.847 92.1819 309.145C62.4341 308.442 47.6792 289.45 43.1732 283.275C38.6672 277.1 33.5997 244.262 33.4873 237.515C33.3749 230.769 45.3477 207.37 48.4251 202.402C51.5024 197.433 54.5682 192.461 60.9704 187.141C67.3726 181.82 72.4943 177.138 75.9088 173.52C79.3233 169.902 86.579 172.243 90.2069 172.669C93.8348 173.095 108.346 180.33 111.334 180.969C114.322 181.607 135.876 188.418 142.064 189.056C148.253 189.694 149.697 193.861 149.697 193.861L145.076 206.262C145.076 206.262 143.107 204.33 136.07 202.386C129.032 200.443 123.99 197.575 113.764 196.743C103.537 195.911 94.568 193.356 84.1683 195.296C73.7686 197.237 60.6665 201.433 51.9315 206.163C43.1964 210.893 42.2689 214.699 39.205 218.537C36.1411 222.374 35.464 231.633 35.464 231.633C35.464 231.633 34.8275 255.579 35.5215 260.653C36.2154 265.728 40.6103 322.704 40.6103 322.704L40.9781 336.85C40.9781 336.85 30.7818 342.035 28.616 347.854C26.4501 353.674 26.069 367.103 27.5714 374.085C29.0737 381.068 35.2068 387.134 38.8473 388.547C42.4877 389.959 45.4256 388.763 47.5205 386.461C51.6906 381.878 50.1849 372.455 49.8499 366.359C49.5148 360.263 31.3609 325.436 31.3609 325.436C31.3609 325.436 23.0261 329.816 20.3872 333.059C17.7483 336.302 14.9939 349.894 14.7248 363.731C14.4558 377.567 14.911 380.491 19.311 388.405C22.0069 393.254 30.3045 398.707 39.4796 402.41C44.8762 404.587 50.7781 399.602 52.8246 396.539C56.5923 390.899 57.9949 379.63 55.8532 371.567C53.7115 363.504 48.2343 351.285 44.9265 346.88C41.6187 342.475 32.2516 331.089 32.2516 331.089L21.8812 308.231C21.8812 308.231 21.2364 286.7 20.262 279.523C19.2875 272.347 26.4009 272.123 26.4009 272.123C26.4009 272.123 36.1006 280.517 37.2968 285.698C38.493 290.88 37.7204 311.496 37.7204 311.496C37.7204 311.496 38.4743 325.213 39.7825 333.941C41.0908 342.669 43.4531 344.193 37.5058 340.758C31.5586 337.324 31.0578 334.996 31.0578 334.996L20.7681 302.301L16.2228 270.966C16.2228 270.966 17.043 260.606 20.3235 255.154C23.604 249.702 29.0715 258.698 30.9851 263.06C32.8987 267.422 34.539 270.966 38.3662 276.146C42.1934 281.326 49.0278 291.413 56.1356 299.046C63.2433 306.679 68.9842 318.13 73.3582 325.49C77.7322 332.851 86.7535 352.207 90.5808 361.476C94.408 370.745 97.1418 384.104 99.0554 392.828C100.969 401.552 105.07 405.914 109.444 414.638C113.818 423.361 114.364 430.177 116.825 442.718C119.285 455.258 122.292 457.984 129.4 466.981C136.508 475.977 151.817 484.429 159.471 486.064C167.126 487.7 182.161 483.883 189.816 482.248C197.47 480.612 228.362 458.257 230.822 452.259C233.282 446.262 280.03 392.828 280.03 392.828L275.656 406.186C275.656 406.186 276.202 401.006 272.102 413.002C268.001 424.997 261.167 457.439 261.167 457.439L260.073 468.617C260.073 468.617 252.145 471.888 246.678 473.251C241.21 474.614 236.29 478.976 222.621 485.792C208.952 492.607 211.686 490.699 200.204 494.788C188.722 498.878 183.255 499.968 169.859 505.966C156.464 511.963 152.91 514.69 144.709 516.598C136.508 518.506 125.573 517.961 116.551 514.417C107.53 510.873 96.595 501.331 88.3938 493.153C80.1925 484.974 79.099 477.068 79.099 477.068C79.099 477.068 76.087 471.378 76.6387 458.802C77.373 442.063 76.9121 444.899 76.3653 439.991C75.8186 435.084 72.2264 408.553 69.9667 404.079C67.707 399.605 68.5819 397.776 66.986 395.369C65.3902 392.962 54.0766 368.354 54.0766 368.354C54.0766 368.354 67.358 384.297 85.1403 377.552C102.923 370.808 105.805 378.134 105.805 378.134L113.155 390.695L117.779 399.493C117.779 399.493 120.388 404.596 124.539 409.025C128.689 413.454 134.381 417.208 134.381 417.208L148.446 421.205L164.098 420.188L178.542 417.373L195.476 417.705C195.476 417.705 207.263 414.228 210.75 412.241C214.236 410.254 221.541 404.956 224.529 401.479C227.518 398.003 228.846 395.023 232.996 385.751C237.147 376.48 241.297 373.831 238.475 374.658C235.653 375.486 234.823 375.321 229.178 373.996C223.533 372.672 217.557 371.016 214.07 369.692C210.584 368.367 205.437 363.069 201.287 361.248C197.136 359.427 184.519 359.592 180.866 360.42C177.214 361.248 168.796 361.689 168.796 361.689C168.796 361.689 161.446 361.446 156.074 360.598C150.702 359.749 143.266 360.314 138.982 362.035C134.699 363.755 128.207 368.235 124.713 372.764C121.22 377.293 110.174 383.465 110.174 383.465L100.998 384.162C103.134 386.558 105.269 387.356 115.412 387.356C125.556 387.356 129.026 389.486 134.898 389.486C140.771 389.486 143.974 389.752 149.313 388.953C154.651 388.155 158.388 388.687 162.392 388.155C166.396 387.622 171.735 387.356 176.539 387.356C181.344 387.356 184.814 386.824 189.352 388.155C193.89 389.486 200.563 390.817 205.635 391.615C210.706 392.414 219.782 391.349 225.121 387.889C230.459 384.428 233.662 381.5 239.268 378.572C244.873 375.644 249.678 370.054 253.415 360.204C257.152 350.355 258.22 344.765 261.423 334.916C264.626 325.067 272.367 311.757 279.841 302.44C287.315 293.124 300.128 302.707 300.128 302.707C300.128 302.707 306.801 323.203 310.004 326.398C313.207 329.592 311.606 330.657 312.14 335.715C312.673 340.772 312.673 357.543 312.673 357.543C312.673 357.543 310.004 369.787 307.602 374.845C305.199 379.903 301.462 384.428 297.192 381.5C292.921 378.572 294.522 368.19 294.522 368.19L309.47 307.498C309.47 307.498 314.809 307.498 317.745 311.491C320.681 315.484 321.749 322.405 322.55 326.398C323.351 330.391 325.486 353.017 325.486 353.017L322.817 370.586C322.817 370.586 321.749 377.241 313.741 389.752C305.733 402.263 298.793 400.4 293.188 398.803C287.582 397.205 290.785 383.63 290.785 379.37C290.785 375.111 306 314.153 306 314.153C306 314.153 313.741 286.735 316.144 281.411C318.546 276.087 318.279 272.36 320.147 267.835C322.016 263.31 324.418 249.734 324.418 249.734L316.41 248.403C311.873 250.266 312.94 248.935 311.606 255.058C310.271 261.18 309.203 260.914 308.67 266.504C308.136 272.094 308.403 281.145 308.403 281.145C308.403 281.145 307.869 304.037 314.275 305.635C319.036 306.822 314.809 295.253 317.478 290.195C320.147 285.138 320.147 281.145 322.283 273.958C324.418 266.77 323.885 269.698 325.753 260.914C327.622 252.13 325.486 245.209 324.685 241.216C323.885 237.223 319.881 235.093 319.881 235.093C319.881 235.093 316.144 231.633 311.873 233.496C307.602 235.359 308.936 239.086 306.801 245.475C304.666 251.863 306.267 257.454 307.068 263.576C307.869 269.698 309.737 284.339 307.869 296.584C306 308.829 295.59 354.881 289.718 371.118C283.845 387.356 262.491 421.695 257.152 426.753C251.813 431.811 226.188 463.222 224.053 466.682C221.917 470.143 214.443 475.733 204.3 482.654C194.157 489.575 142.372 489.309 134.098 478.128C125.823 466.948 103.668 446.718 93.2573 435.537C82.847 424.357 68.2916 395.46 73.5148 419.114C79.0735 444.287 78.5082 489.609 64.4272 508.985C51.0204 527.433 16.0555 517.874 8.27425 540.303C0.492991 562.733 34.8937 582.832 34.8937 582.832"/>
    </g>
</svg>