<?xml version="1.0" encoding="UTF-8" standalone="no"?>
<!DOCTYPE svg PUBLIC "-//W3C//DTD SVG 1.1//EN" "http://www.w3.org/Graphics/SVG/1.1/DTD/svg11.dtd">
<!-- Created with Vectornator (http://vectornator.io/) -->
<svg height="100%" stroke-miterlimit="10" style="fill-rule:nonzero;clip-rule:evenodd;stroke-linecap:round;stroke-linejoin:round;" version="1.1" viewBox="0 0 1024 768" width="100%" xml:space="preserve" xmlns="http://www.w3.org/2000/svg" xmlns:vectornator="http://vectornator.io" xmlns:xlink="http://www.w3.org/1999/xlink">
<defs/>
<g id="Layer-3" vectornator:layerName="Layer 3">
<path d="M346.822 266.563C346.822 266.563 326.58 276.871 323.853 278.332C321.126 279.793 301.941 278.721 299.02 278.721C296.098 278.721 284.315 277.942 280.225 280.766C276.134 283.591 277.303 286.415 272.531 288.557C267.759 290.7 266.201 291.479 268.052 294.498C269.902 297.517 266.688 296.056 264.156 298.198C261.624 300.341 267.858 302.079 267.858 302.079C267.858 302.079 303.83 283.034 305.664 297.564C307.498 312.094 305.244 313.916 294.612 334.307C291.336 340.589 297.798 351.375 299.865 359.837C301.932 368.298 304.548 367.64 304.548 367.64C304.548 367.64 300.383 347.995 304.674 351.679C309.99 356.243 304.474 359.963 307.987 364.789C311.324 369.373 311.016 367.53 311.512 376.381C311.823 381.918 323.733 380.707 329.414 385.563C331.28 387.157 343.671 399.549 351.655 400.757C359.049 401.877 361.784 391.781 370.197 393.966C396.445 400.782 388.538 403.2 398.341 407.44C403.882 409.837 406.04 417.918 412.519 422.525C418.279 426.621 423.381 424.42 423.721 427.506C424.952 438.662 432.601 431.284 432.846 436.925C433.002 440.499 423.571 449.293 424.032 452.585C424.656 457.047 429.183 466.541 419.523 469.43C398.337 475.767 410.488 473.459 409.364 479.886C408.107 487.081 393.979 489.238 397.14 496.005C399.476 501.007 387.647 504.473 386.237 512.542C384.913 520.115 388.993 525.846 394.07 532.468C394.419 532.923 381.844 545.849 368.79 500.858C364.611 486.453 367.124 484.95 368.293 476.793C369.39 469.145 373.057 456.882 364.261 454.138C355.967 451.551 359.208 448.15 355.238 441.658C348.677 430.931 347.317 435.337 346.573 430.28C345.175 420.761 349.844 425.962 349.556 420.501C349.243 414.571 357.866 414.393 357.69 408.353C357.46 400.454 355.577 398.385 351.872 399.01C346.446 399.927 350.975 391.511 347.775 385.111C344.575 378.711 343.896 388.505 341.569 384.529C339.242 380.554 347.484 376.675 344.866 374.251C344.747 374.141 346.018 368.816 351.521 369.098C357.023 369.38 360.259 375.015 366.511 378.27C368.849 379.487 371.866 377.141 373.704 378.211C378.858 381.211 373.273 384.137 368.15 383.221C365.75 382.791 360.407 376.336 356.123 374.843C347.996 372.012 340.264 373.606 339.679 373.72C334.207 374.787 326.525 378.993 326.152 371.148C325.667 360.967 344.866 351.173 350.005 356.991C355.144 362.809 351.654 367.27 357.181 365.621C362.708 363.973 353.69 355.828 365.714 348.458C377.737 341.089 378.819 332.122 387.283 330.95C395.747 329.778 404.532 328.653 400.907 324.307C397.282 319.961 408.731 315.512 408.721 320.094C408.71 324.676 409.922 329.108 415.593 326.876C421.265 324.644 417.983 323.949 417.535 319.519C417.087 315.089 416.866 311.346 414.75 308.638C412.633 305.93 415.959 303.621 414.766 300.266C413.572 296.911 406.714 300.979 406.714 300.979C406.714 300.979 400.957 288.219 390.49 302.209C380.022 316.199 366.018 307.254 368.403 300.072C370.787 292.891 381.192 290.848 385.07 291.462C388.949 292.076 394.559 290.663 397.741 286.788C400.922 282.913 399.43 280.577 404.635 281.001C409.84 281.425 413.446 281.819 411.632 284.951C409.818 288.084 404.443 287.702 406.396 290.862C408.349 294.022 420.18 295.344 421.122 289.611C422.063 283.878 421.059 276.092 405.697 275.426C390.334 274.761 369.713 290.5 359.672 286.949C349.632 283.398 351.474 280.024 353.706 276.503C355.939 272.982 403.248 267.613 419.151 271.538C422.535 272.373 434.523 267.442 443.548 265.991C452.573 264.539 461.823 264.256 472.656 264.637C483.488 265.017 485.316 265.197 491.567 266.947C497.817 268.697 488.661 270.222 485.427 275.063C482.194 279.903 472.719 290.068 466.194 288.905C459.669 287.741 458.632 287.893 453.988 291.454C449.345 295.016 448.423 300.283 444.116 301.066C439.808 301.849 434.689 303.952 433.631 297.468C432.574 290.984 433.959 287.615 436.528 284.357C439.098 281.098 439.766 280.291 439.889 275.905C440.011 271.52 442.454 269.11 448.245 266.974C454.036 264.839 468.242 269.193 472.719 273.596C477.197 278 469.66 292.625 516.047 289.968C539.012 288.653 563.62 289.375 580.943 292.871C598.267 296.368 604.864 286.662 627.681 282.997C650.497 279.331 658.757 290.316 673.612 293.04C688.466 295.764 688.756 290.15 699.493 295.004C710.23 299.857 711.325 295.208 720.811 297.7C730.296 300.193 767.986 302.708 763.316 306.937C753.166 316.129 746.118 321.48 746.118 321.48C746.118 321.48 750.556 334.304 747.188 332.487C734.007 325.374 715.719 310.363 709.32 316.624C702.92 322.886 724.581 329.027 726.286 332.987C728.935 339.14 724.514 355.757 717.301 360.469C710.089 365.181 703.791 352.124 701.06 353.721C697.675 355.698 706.093 355.657 704.299 359.187C701.058 365.565 715.662 375.287 707.326 384.543C698.99 393.798 692.156 382.898 689.679 396.963C687.201 411.029 693.386 420.143 690.665 425.477C687.074 432.514 688.804 434.152 692.717 440.295C696.63 446.439 699.189 445.887 701.989 445.002C704.79 444.118 705.652 446.775 705.313 450.21C704.975 453.645 703.889 455.14 700.536 453.466C697.183 451.791 692.886 448.796 689.383 448.027C685.88 447.259 685.5 441.144 682.743 436.729C679.985 432.313 665.861 418.976 668.055 424.731C670.249 430.487 677.17 440.16 682.282 447.472C687.393 454.784 700.767 456.295 703.327 456.226C705.887 456.157 707.273 457.822 713.031 461.962C718.789 466.102 721.399 465.864 723.857 466.597C726.316 467.33 725.011 463.503 729.884 461.864C734.758 460.224 737.626 460.202 738.348 462.887C739.071 465.572 738.834 469.54 738.834 469.54C738.834 469.54 747.816 476.256 748.829 465.043C748.889 464.379 766.449 460.027 760.711 452.784C753.525 443.713 742.156 447.807 735.327 438.743C733.545 436.378 728.654 434.554 729.079 439.076C729.395 442.441 750.163 460.984 750.689 461.335C752.579 462.594 754.981 471.214 754.005 473.302C752.603 476.299 761.359 485.787 761.813 490.768C762.266 495.75 761.35 500.138 758.471 502.672C755.592 505.206 753.005 506.996 749.738 510.522C746.471 514.048 746.04 517.197 741.469 518.211C736.897 519.225 738.493 519.677 734.255 517.791C730.018 515.904 731.42 516.853 728.659 514.114C725.899 511.376 727.085 512.583 724.518 510.664C721.952 508.745 722.459 509.058 721.531 506.751C720.604 504.443 721.65 502.794 719.03 502.912C716.41 503.031 719.041 504.346 714.566 503.797C710.091 503.247 693.293 511.831 690.015 506.031C686.737 500.23 689.627 503.077 690.435 494.871C691.243 486.666 688.159 484.316 696.385 480.099C704.612 475.882 710.833 473.283 713.884 470.016C716.935 466.749 711.662 454.792 711.855 451.665C712.049 448.538 712.89 448.581 715.348 444.052C717.806 439.524 725.192 436.58 721.364 435.254C717.536 433.928 715.768 430.262 712.63 433.896C709.493 437.53 707.736 443.19 705.568 440.398C703.401 437.606 703.832 437.088 703.638 432.322C703.443 427.557 701.06 423.708 696.316 424.139C691.572 424.571 686.728 424.51 682.152 419.449C677.577 414.387 668.194 408.245 666.33 403.171C664.466 398.097 667.34 396.292 661.112 392.372C654.884 388.451 655.338 387.718 650.23 392.806C645.122 397.894 643.8 398.098 641.322 402.65C638.845 407.202 641.021 410.601 640.08 415.291C639.139 419.982 628.798 411.962 630.045 404.552C631.292 397.141 628.437 393.848 622.883 389.492C617.33 385.135 622.851 384.1 614.452 383.745C606.053 383.389 597.773 375.332 590.866 373.568C583.96 371.803 577.778 367.803 578.79 374.631C579.802 381.459 600.185 381.468 601.493 386.005C602.8 390.541 599.035 396.025 599.035 396.025C599.035 396.025 592.313 401.856 586.959 401.602C581.604 401.348 579.973 405.79 577.017 404.673C574.061 403.557 571.675 397.568 569.656 392.394C567.637 387.22 560.141 374.77 559.322 369.891C558.504 365.011 553.203 365.472 544.885 366.661C536.568 367.85 533.201 367.61 526.393 365.118C519.586 362.625 516.976 366.352 512.702 361.995C508.427 357.637 495.523 356.56 484.46 361.44C473.396 366.32 475.227 364.541 471.052 372.54C466.877 380.54 465.435 380.989 466.246 387.256C467.057 393.524 471.047 400.317 471.016 405.869C470.985 411.42 472.286 414.813 479.728 415.837C487.17 416.861 495.477 414.436 504.04 417.752C512.604 421.067 509.391 423.469 513.527 434.292C517.664 445.114 522.122 443.938 519.317 452.097C516.512 460.257 514.377 466.643 519.74 476.22C525.102 485.797 523.825 490.123 525.666 496.82C527.507 503.516 530.641 503.11 539.322 497.489C548.003 491.868 548.717 488.402 551.73 482.427C554.742 476.452 554.402 476.721 557.765 471.713C561.128 466.704 563.475 467.75 569.058 462.23C574.641 456.709 579.044 453.366 582.815 454.115C586.585 454.864 588.404 456.466 586.411 461.634C584.419 466.802 585.119 468.736 581.781 472.204C578.444 475.672 578.826 482.969 574.967 482.981C571.107 482.993 569.002 481.204 570.634 473.833C572.267 466.463 574.341 461.921 574.902 458.437C575.464 454.954 567.968 454.387 567.968 454.387C567.968 454.387 565.279 450.986 565.097 447.261C564.915 443.536 567.39 436.881 572.821 431.343C578.252 425.805 583.792 421.977 584.746 417.768C585.701 413.558 586.834 407.827 583.056 408.465C579.277 409.104 575.132 420.811 568.376 415.238C561.62 409.664 562.863 408.267 558.567 398.814C554.27 389.362 554.8 391.43 554.811 383.407C554.823 375.384 555.778 371.174 558.065 364.806C560.352 358.437 565.486 355.323 560.648 354.58C555.811 353.837 558.168 353.332 552.579 353.627C546.99 353.923 544.633 354.428 544.498 350.428C544.362 346.429 547.393 339.863 542.925 344.38C538.457 348.897 543.504 353.311 537.665 351.652C531.825 349.993 536.753 344.199 534.039 341.69C531.324 339.181 529.095 332.984 525.875 335.021C522.656 337.058 525.189 338.836 528.08 343.628C530.971 348.42 532.959 349.558 528.791 351.209C524.623 352.859 523.543 353.824 522.471 351.685C521.399 349.545 522.766 351.46 524.032 348.915C525.297 346.369 524.708 344.986 523.206 343.62C521.705 342.254 520.054 340.059 518.27 337.948C516.487 335.836 512.913 336.195 510.62 338.277C508.326 340.36 504.654 343.163 500.062 346.775C495.471 350.387 494.161 352.601 490.022 350.819C485.883 349.036 484.364 348.192 484.378 343.945C484.392 339.698 487.146 337.531 491.184 336.275C495.222 335.02 495.902 337.37 497.532 336.637C499.163 335.904 500.672 334.12 500.388 333.298C500.104 332.476 499.308 330.884 497.731 330.07C496.154 329.256 494.679 328.467 495.595 326.914C496.51 325.362 497.357 324.977 499.752 324.86C502.147 324.744 504.247 324.071 505.925 322.92C507.604 321.768 505.308 317.499 503.891 316.025C502.475 314.55 500.419 314.158 500.771 311.608C501.122 309.058 502.186 306.896 499.913 306.29C497.64 305.683 496.801 305.156 495.598 307.445C494.396 309.734 493.763 309.903 494.433 311.572C495.103 313.241 494.942 311.911 494.667 314.587C494.393 317.263 496.633 316.679 493.652 318.32C490.671 319.961 489.412 321.376 487.806 320.018C486.201 318.659 485.53 318.764 486.91 316.626C488.291 314.488 487.238 314.393 489.314 313.823C491.389 313.252 491.438 313.049 493.836 313.363C496.233 313.677 498.461 313.144 498.085 315.795C497.709 318.447 496.785 318.706 496.845 320.227C496.906 321.747 498.229 322.499 500.821 321.57C503.414 320.641 503.926 321.411 505.615 319.994C507.305 318.576 507.543 320.248 510.489 318.974C513.434 317.701 513.873 320.188 515.018 317.63C516.164 315.073 515.287 314.283 516.786 312.447C518.286 310.611 518.404 310.105 518.989 310.632C519.573 311.159 518.179 314.287 520.472 315.887C522.764 317.488 523.199 318.455 526.819 317.125C530.439 315.794 531.092 315.962 533.883 314.02C536.674 312.079 538.475 311.601 538.867 309.333C539.258 307.064 536.86 306.59 536.068 305.258C535.276 303.926 535.195 302.447 536.767 300.152C538.34 297.856 541.416 294.858 538.384 295.273C535.352 295.689 536.181 293.924 533.997 297.104C531.813 300.283 531.291 299.777 531.291 299.777C531.291 299.777 528.685 305.352 531.804 306.259C534.922 307.167 532.464 309.126 529.222 311.211C525.98 313.296 524.973 315.403 523.828 314.204C522.682 313.005 521.989 311.466 521.583 308.673C521.176 305.88 521.825 303.787 519.831 305.095C517.838 306.403 517.031 308.095 515.28 308.569C513.53 309.043 513.123 308.413 512.426 306.755C511.728 305.097 510.627 304.422 512.053 302.359C513.479 300.297 529.394 293.905 532.872 285.543C537.545 274.309 536.436 267.128 541.627 263.706" fill="none" opacity="1" stroke="#02f4a7" stroke-linecap="butt" stroke-linejoin="round" stroke-width="2.06624"/>
<path id"pin1" d="M335.005 328.619C330.308 328.619 326.501 332.544 326.501 337.387C326.501 343.649 335.005 353.46 335.005 353.46C335.005 353.46 343.51 343.649 343.51 337.387C343.51 332.544 339.703 328.619 335.005 328.619ZM335.005 340.518C333.329 340.518 331.968 339.117 331.968 337.387C331.968 335.656 333.327 334.255 335.005 334.255C336.684 334.255 338.043 335.656 338.043 337.387C338.043 339.115 336.682 340.518 335.005 340.518Z" fill="#000000" fill-rule="nonzero" opacity="1" stroke="none" vectornator:layerName="path"/>
<path id="pin2" d="M491.844 292.299C487.147 292.299 483.339 296.223 483.339 301.066C483.339 307.329 491.844 317.139 491.844 317.139C491.844 317.139 500.349 307.329 500.349 301.066C500.349 296.223 496.541 292.299 491.844 292.299ZM491.844 304.197C490.167 304.197 488.806 302.796 488.806 301.066C488.806 299.336 490.166 297.934 491.844 297.934C493.522 297.934 494.882 299.336 494.882 301.066C494.882 302.794 493.521 304.197 491.844 304.197Z" fill="#000000" fill-rule="nonzero" opacity="1" stroke="none" vectornator:layerName="path 1"/>
<path id="pin3" d="M512.637 304.433C507.939 304.433 504.132 308.358 504.132 313.2C504.132 319.463 512.637 329.273 512.637 329.273C512.637 329.273 521.142 319.463 521.142 313.2C521.142 308.358 517.334 304.433 512.637 304.433ZM512.637 316.331C510.96 316.331 509.599 314.93 509.599 313.2C509.599 311.47 510.959 310.069 512.637 310.069C514.315 310.069 515.674 311.47 515.674 313.2C515.674 314.929 514.314 316.331 512.637 316.331Z" fill="#000000" fill-rule="nonzero" opacity="1" stroke="none" vectornator:layerName="path 2"/>
<path id="pin4" d="M505.662 308.285C500.965 308.285 497.157 312.21 497.157 317.053C497.157 323.315 505.662 333.126 505.662 333.126C505.662 333.126 514.167 323.315 514.167 317.053C514.167 312.21 510.359 308.285 505.662 308.285ZM505.662 320.184C503.985 320.184 502.624 318.783 502.624 317.053C502.624 315.323 503.984 313.921 505.662 313.921C507.34 313.921 508.7 315.323 508.7 317.053C508.7 318.781 507.339 320.184 505.662 320.184Z" fill="#000000" fill-rule="nonzero" opacity="1" stroke="none" vectornator:layerName="path 3"/>
<path id="pin5" d="M677.991 386.871C673.294 386.871 669.487 390.796 669.487 395.639C669.487 401.901 677.991 411.712 677.991 411.712C677.991 411.712 686.496 401.901 686.496 395.639C686.496 390.796 682.689 386.871 677.991 386.871ZM677.991 398.77C676.315 398.77 674.954 397.369 674.954 395.639C674.954 393.908 676.313 392.507 677.991 392.507C679.67 392.507 681.029 393.908 681.029 395.639C681.029 397.367 679.668 398.77 677.991 398.77Z" fill="#000000" fill-rule="nonzero" opacity="1" stroke="none" vectornator:layerName="path 4"/>
<path id="pin6" d="M390.324 299.969C385.627 299.969 381.82 303.894 381.82 308.737C381.82 315 390.324 324.81 390.324 324.81C390.324 324.81 398.829 315 398.829 308.737C398.829 303.894 395.022 299.969 390.324 299.969ZM390.324 311.868C388.648 311.868 387.287 310.467 387.287 308.737C387.287 307.007 388.646 305.605 390.324 305.605C392.003 305.605 393.362 307.007 393.362 308.737C393.362 310.465 392.001 311.868 390.324 311.868Z" fill="#000000" fill-rule="nonzero" opacity="1" stroke="none" vectornator:layerName="path 5"/>
<path id="pin7" d="M345.005 330.193C340.307 330.193 336.5 334.118 336.5 338.96C336.5 345.223 345.005 355.033 345.005 355.033C345.005 355.033 353.509 345.223 353.509 338.96C353.509 334.118 349.702 330.193 345.005 330.193ZM345.005 342.091C343.328 342.091 341.967 340.69 341.967 338.96C341.967 337.23 343.326 335.829 345.005 335.829C346.683 335.829 348.042 337.23 348.042 338.96C348.042 340.689 346.682 342.091 345.005 342.091Z" fill="#000000" fill-rule="nonzero" opacity="1" stroke="none" vectornator:layerName="path 6"/>
</g>
</svg>
